<svg fill="none" height="256" viewBox="0 0 256 256" width="256" xmlns="http://www.w3.org/2000/svg" xmlns:xlink="http://www.w3.org/1999/xlink"><linearGradient id="a" gradientUnits="userSpaceOnUse" x1="0" x2="256" y1="128" y2="128"><stop offset="0" stop-color="#a233ea"/><stop offset="1" stop-color="#db2777"/></linearGradient><path d="m128 256c70.692 0 128-57.308 128-128 0-70.6924-57.308-128-128-128-70.6924 0-128 57.3076-128 128 0 70.692 57.3076 128 128 128z" fill="url(#a)"/><path clip-rule="evenodd" d="m228.987 140.548c6.542-3.777 6.542-13.22 0-16.997l-136.1603-78.6124c-6.5422-3.7772-14.72.9442-14.72 8.4985v157.2239c0 7.555 8.1777 12.276 14.72 8.499zm-127.614-73.678 104.395 60.273h-41.352c-1.199 0-2.211-.87-2.492-2.035-3.121-12.91-14.749-22.499-28.617-22.499-16.26 0-29.44 13.181-29.44 29.44s13.18 29.44 29.44 29.44c13.868 0 25.496-9.589 28.617-22.498.281-1.165 1.293-2.035 2.492-2.035h41.352l-104.611 60.397c-4.1957.565-8.3303-2.655-8.3303-7.307v-115.9016c0-4.7318 4.2778-7.9816 8.5463-7.2744z" fill="#fff" fill-rule="evenodd"/></svg>